<?xml version="1.0" encoding="UTF-8" standalone="no"?>
<!DOCTYPE svg PUBLIC "-//W3C//DTD SVG 1.1//EN" "http://www.w3.org/Graphics/SVG/1.1/DTD/svg11.dtd">
<svg width="100%" height="100%" viewBox="0 0 1700 280" version="1.1" xmlns="http://www.w3.org/2000/svg" xmlns:xlink="http://www.w3.org/1999/xlink" xml:space="preserve" style="fill-rule:evenodd;clip-rule:evenodd;stroke-linejoin:round;stroke-miterlimit:1.41421;">
    <g transform="matrix(1,0,0,1,-447.03,-0.837174)">
        <g id="Banner" transform="matrix(3.27956,-2.22368e-16,-1.22086e-14,0.96762,470.785,489.435)">
            <g id="AC" transform="matrix(0.357206,8.20893e-17,4.50693e-15,1.21068,173.007,-482.124)">
                <g id="Corsino" transform="matrix(1,1.31372e-46,-2.8026e-45,1,-768.034,-92.8946)">
                    <g transform="matrix(4.38108,0,0,5.12811,1448.64,242.214)">
                        <path id="orsino" d="M-27.104,-18.631C-25.79,-18.631 -24.614,-18.406 -23.575,-17.958C-22.537,-17.51 -21.662,-16.874 -20.95,-16.051C-20.237,-15.228 -19.693,-14.236 -19.319,-13.075C-18.944,-11.914 -18.757,-10.614 -18.757,-9.177C-18.757,-7.74 -18.944,-6.444 -19.319,-5.289C-19.693,-4.134 -20.237,-3.145 -20.95,-2.322C-21.662,-1.499 -22.537,-0.866 -23.575,-0.424C-24.614,0.018 -25.79,0.24 -27.104,0.24C-28.419,0.24 -29.595,0.018 -30.633,-0.424C-31.671,-0.866 -32.55,-1.499 -33.269,-2.322C-33.987,-3.145 -34.534,-4.134 -34.909,-5.289C-35.283,-6.444 -35.471,-7.74 -35.471,-9.177C-35.471,-10.614 -35.283,-11.914 -34.909,-13.075C-34.534,-14.236 -33.987,-15.228 -33.269,-16.051C-32.55,-16.874 -31.671,-17.51 -30.633,-17.958C-29.595,-18.406 -28.419,-18.631 -27.104,-18.631ZM-27.104,-1.143C-26.011,-1.143 -25.056,-1.33 -24.239,-1.705C-23.422,-2.079 -22.74,-2.617 -22.193,-3.317C-21.647,-4.017 -21.238,-4.862 -20.968,-5.851C-20.698,-6.84 -20.563,-7.949 -20.563,-9.177C-20.563,-10.393 -20.698,-11.499 -20.968,-12.494C-21.238,-13.489 -21.647,-14.34 -22.193,-15.046C-22.74,-15.753 -23.422,-16.296 -24.239,-16.677C-25.056,-17.058 -26.011,-17.248 -27.104,-17.248C-28.198,-17.248 -29.153,-17.058 -29.97,-16.677C-30.787,-16.296 -31.469,-15.753 -32.015,-15.046C-32.562,-14.34 -32.974,-13.489 -33.25,-12.494C-33.527,-11.499 -33.665,-10.393 -33.665,-9.177C-33.665,-7.949 -33.527,-6.84 -33.25,-5.851C-32.974,-4.862 -32.562,-4.017 -32.015,-3.317C-31.469,-2.617 -30.787,-2.079 -29.97,-1.705C-29.153,-1.33 -28.198,-1.143 -27.104,-1.143Z" style="fill:rgb(130,130,130);fill-rule:nonzero;"/>
                        <path d="M-12.307,-13.913C-12.024,-14.662 -11.702,-15.329 -11.339,-15.912C-10.977,-16.496 -10.559,-16.99 -10.086,-17.396C-9.613,-17.801 -9.085,-18.111 -8.501,-18.326C-7.918,-18.541 -7.27,-18.649 -6.557,-18.649C-6.177,-18.649 -5.802,-18.615 -5.433,-18.548C-5.065,-18.48 -4.739,-18.36 -4.457,-18.188L-4.604,-16.972C-4.665,-16.775 -4.782,-16.677 -4.954,-16.677C-5.102,-16.677 -5.326,-16.72 -5.627,-16.806C-5.928,-16.892 -6.324,-16.935 -6.815,-16.935C-7.528,-16.935 -8.158,-16.828 -8.704,-16.613C-9.251,-16.398 -9.742,-16.075 -10.178,-15.645C-10.615,-15.215 -10.995,-14.684 -11.321,-14.051C-11.647,-13.419 -11.944,-12.691 -12.215,-11.868L-12.215,0L-13.984,0L-13.984,-18.336L-13.044,-18.336C-12.835,-18.336 -12.688,-18.293 -12.602,-18.207C-12.516,-18.121 -12.46,-17.973 -12.436,-17.764L-12.307,-13.913Z" style="fill:rgb(130,130,130);fill-rule:nonzero;"/>
                        <path d="M8.677,-16.069C8.579,-15.897 8.438,-15.811 8.253,-15.811C8.118,-15.811 7.946,-15.888 7.737,-16.041C7.529,-16.195 7.249,-16.367 6.899,-16.557C6.549,-16.748 6.116,-16.92 5.6,-17.073C5.084,-17.227 4.457,-17.304 3.72,-17.304C3.057,-17.304 2.452,-17.209 1.905,-17.018C1.358,-16.828 0.891,-16.573 0.504,-16.253C0.117,-15.934 -0.18,-15.562 -0.389,-15.138C-0.598,-14.715 -0.703,-14.269 -0.703,-13.802C-0.703,-13.225 -0.555,-12.746 -0.26,-12.365C0.035,-11.984 0.418,-11.659 0.891,-11.388C1.364,-11.118 1.908,-10.885 2.522,-10.688C3.137,-10.492 3.76,-10.295 4.393,-10.098C5.025,-9.902 5.649,-9.684 6.263,-9.444C6.877,-9.205 7.421,-8.907 7.894,-8.551C8.367,-8.194 8.751,-7.758 9.046,-7.242C9.341,-6.726 9.488,-6.1 9.488,-5.363C9.488,-4.564 9.347,-3.821 9.064,-3.133C8.782,-2.445 8.367,-1.849 7.82,-1.345C7.274,-0.842 6.601,-0.442 5.802,-0.147C5.004,0.147 4.089,0.295 3.057,0.295C1.767,0.295 0.655,0.089 -0.279,-0.322C-1.212,-0.734 -2.048,-1.272 -2.785,-1.935L-2.38,-2.561C-2.318,-2.66 -2.247,-2.733 -2.168,-2.783C-2.088,-2.832 -1.98,-2.856 -1.845,-2.856C-1.685,-2.856 -1.492,-2.758 -1.265,-2.561C-1.037,-2.365 -0.733,-2.153 -0.352,-1.926C0.028,-1.698 0.498,-1.487 1.057,-1.29C1.616,-1.093 2.307,-0.995 3.13,-0.995C3.904,-0.995 4.586,-1.103 5.176,-1.318C5.766,-1.533 6.257,-1.824 6.65,-2.193C7.043,-2.561 7.341,-2.995 7.544,-3.492C7.747,-3.99 7.848,-4.515 7.848,-5.068C7.848,-5.682 7.701,-6.192 7.406,-6.597C7.111,-7.003 6.724,-7.347 6.245,-7.629C5.766,-7.912 5.222,-8.151 4.614,-8.348C4.006,-8.544 3.382,-8.741 2.743,-8.938C2.105,-9.134 1.481,-9.349 0.873,-9.582C0.265,-9.816 -0.279,-10.111 -0.758,-10.467C-1.237,-10.823 -1.624,-11.256 -1.919,-11.766C-2.214,-12.276 -2.361,-12.912 -2.361,-13.673C-2.361,-14.325 -2.22,-14.951 -1.937,-15.553C-1.655,-16.155 -1.252,-16.683 -0.73,-17.138C-0.208,-17.592 0.428,-17.955 1.177,-18.225C1.926,-18.495 2.768,-18.631 3.702,-18.631C4.82,-18.631 5.812,-18.471 6.678,-18.151C7.544,-17.832 8.333,-17.341 9.046,-16.677L8.677,-16.069Z" style="fill:rgb(130,130,130);fill-rule:nonzero;"/>
                        <path d="M16.03,-18.336L16.03,0L14.279,0L14.279,-18.336L16.03,-18.336ZM16.785,-24.656C16.785,-24.435 16.739,-24.23 16.647,-24.039C16.555,-23.849 16.435,-23.68 16.288,-23.532C16.14,-23.385 15.968,-23.268 15.772,-23.182C15.575,-23.096 15.367,-23.053 15.145,-23.053C14.924,-23.053 14.715,-23.096 14.519,-23.182C14.322,-23.268 14.15,-23.385 14.003,-23.532C13.855,-23.68 13.739,-23.849 13.653,-24.039C13.567,-24.23 13.524,-24.435 13.524,-24.656C13.524,-24.878 13.567,-25.09 13.653,-25.292C13.739,-25.495 13.855,-25.67 14.003,-25.817C14.15,-25.965 14.322,-26.082 14.519,-26.168C14.715,-26.254 14.924,-26.297 15.145,-26.297C15.367,-26.297 15.575,-26.254 15.772,-26.168C15.968,-26.082 16.14,-25.965 16.288,-25.817C16.435,-25.67 16.555,-25.495 16.647,-25.292C16.739,-25.09 16.785,-24.878 16.785,-24.656Z" style="fill:rgb(130,130,130);fill-rule:nonzero;"/>
                        <path d="M23.77,-15.129C24.617,-16.186 25.597,-17.033 26.709,-17.672C27.821,-18.311 29.058,-18.631 30.422,-18.631C31.429,-18.631 32.317,-18.471 33.085,-18.151C33.853,-17.832 34.488,-17.371 34.992,-16.769C35.496,-16.167 35.877,-15.443 36.135,-14.595C36.393,-13.747 36.522,-12.789 36.522,-11.72L36.522,0L34.753,0L34.753,-11.72C34.753,-13.44 34.359,-14.788 33.573,-15.765C32.787,-16.742 31.589,-17.23 29.98,-17.23C28.788,-17.23 27.673,-16.926 26.635,-16.318C25.597,-15.71 24.673,-14.865 23.862,-13.784L23.862,0L22.093,0L22.093,-18.336L23.069,-18.336C23.376,-18.336 23.555,-18.182 23.604,-17.875L23.77,-15.129Z" style="fill:rgb(130,130,130);fill-rule:nonzero;"/>
                        <path d="M49.44,-18.631C50.754,-18.631 51.93,-18.406 52.969,-17.958C54.007,-17.51 54.882,-16.874 55.594,-16.051C56.307,-15.228 56.851,-14.236 57.225,-13.075C57.6,-11.914 57.787,-10.614 57.787,-9.177C57.787,-7.74 57.6,-6.444 57.225,-5.289C56.851,-4.134 56.307,-3.145 55.594,-2.322C54.882,-1.499 54.007,-0.866 52.969,-0.424C51.93,0.018 50.754,0.24 49.44,0.24C48.125,0.24 46.949,0.018 45.911,-0.424C44.873,-0.866 43.994,-1.499 43.275,-2.322C42.557,-3.145 42.01,-4.134 41.635,-5.289C41.261,-6.444 41.073,-7.74 41.073,-9.177C41.073,-10.614 41.261,-11.914 41.635,-13.075C42.01,-14.236 42.557,-15.228 43.275,-16.051C43.994,-16.874 44.873,-17.51 45.911,-17.958C46.949,-18.406 48.125,-18.631 49.44,-18.631ZM49.44,-1.143C50.533,-1.143 51.488,-1.33 52.305,-1.705C53.122,-2.079 53.804,-2.617 54.351,-3.317C54.897,-4.017 55.306,-4.862 55.576,-5.851C55.846,-6.84 55.981,-7.949 55.981,-9.177C55.981,-10.393 55.846,-11.499 55.576,-12.494C55.306,-13.489 54.897,-14.34 54.351,-15.046C53.804,-15.753 53.122,-16.296 52.305,-16.677C51.488,-17.058 50.533,-17.248 49.44,-17.248C48.346,-17.248 47.391,-17.058 46.574,-16.677C45.757,-16.296 45.075,-15.753 44.529,-15.046C43.982,-14.34 43.57,-13.489 43.294,-12.494C43.017,-11.499 42.879,-10.393 42.879,-9.177C42.879,-7.949 43.017,-6.84 43.294,-5.851C43.57,-4.862 43.982,-4.017 44.529,-3.317C45.075,-2.617 45.757,-2.079 46.574,-1.705C47.391,-1.33 48.346,-1.143 49.44,-1.143Z" style="fill:rgb(130,130,130);fill-rule:nonzero;"/>
                    </g>
                    <g id="C-logo" transform="matrix(1.0182,-7.06157e-19,-7.06157e-19,1.02108,647.583,-35.2573)">
                        <path d="M604.143,138.344C600.503,138.344 596.864,138.549 593.225,138.963C578.801,140.755 560.871,147.579 539.438,159.434C516.791,171.978 497.918,186.108 482.82,201.822C465.431,219.88 456.736,236.422 456.736,251.447C456.736,264.129 463.205,274.85 476.146,282.707C487.74,290.013 501.759,293.353 518.205,293.629C528.315,293.905 538.696,292.871 549.346,290.527C559.995,288.046 571.481,284.143 582.805,279.318C596.969,272.22 606.684,267.511 624.451,252.691C625.395,251.726 625.867,250.969 625.867,250.418C625.867,249.729 625.598,249.383 625.059,249.383C624.385,249.383 623.643,249.865 622.834,250.83C611,261.784 597.14,268.474 581.65,275.063C570.731,279.474 560.196,282.669 549.547,285.15C539.032,287.494 528.653,288.804 518.408,289.08C500.614,289.494 489.68,288.659 478.686,278.838C471.776,272.665 469.79,264.609 470.016,251.928C470.077,248.482 470.486,245.105 471.43,241.797C477.631,220.982 488.818,201.684 516.992,179.904C543.683,159.641 568.419,147.304 591.201,142.893C593.088,142.617 594.841,142.409 596.459,142.271C598.211,142.134 599.83,142.064 601.312,142.064C612.232,142.064 618.904,144.822 621.33,150.336C615.534,156.677 609.738,164.673 603.941,174.322C596.258,186.729 592.201,196.361 592.201,204.08C594.089,205.763 595.911,206.415 598.551,206.172C606.235,201.761 613.377,195.894 618.904,189.002C623.757,183.488 627.06,178.388 628.812,173.701C630.565,168.877 631.441,163.776 631.441,158.4C631.441,152.886 630.497,148.959 628.609,146.615C630.362,144.41 631.059,143.145 631.154,142.742C631.295,142.14 631.199,141.479 630.537,141.295C629.714,141.065 629.304,141.357 628.812,141.859L626.184,144.547C621.735,140.411 614.388,138.344 604.143,138.344L604.143,138.344ZM622.543,153.645C623.891,155.988 624.566,159.089 624.566,162.949C624.566,165.155 624.297,167.292 623.758,169.359C623.353,171.427 622.746,173.564 621.938,175.77C617.354,186.659 610.007,195.482 599.896,202.236C599.222,202.65 598.615,202.65 598.076,202.236C597.672,201.961 597.537,201.34 597.672,200.375C599.424,193.207 602.661,185.005 607.379,175.77C609.805,170.945 612.298,166.74 614.859,163.156C617.421,159.572 619.982,156.401 622.543,153.645L622.543,153.645ZM609.406,182.68C608.336,182.679 607.467,183.546 607.467,184.617C607.467,185.688 608.336,186.555 609.406,186.555C610.476,186.554 611.343,185.687 611.344,184.617C611.343,183.547 610.476,182.68 609.406,182.68ZM464.303,241.486C466.361,241.486 468.03,243.155 468.029,245.213C468.029,247.27 466.36,248.938 464.303,248.938C462.246,248.937 460.579,247.27 460.578,245.213C460.578,243.155 462.245,241.487 464.303,241.486ZM463.545,251.473C465.52,251.473 467.121,253.074 467.121,255.049C467.121,257.024 465.52,258.625 463.545,258.625C461.571,258.624 459.971,257.023 459.971,255.049C459.971,253.074 461.571,251.474 463.545,251.473Z" style="fill:rgb(130,130,130);fill-rule:nonzero;"/>
                    </g>
                </g>
                <g id="Alejandro" transform="matrix(1,4.37906e-47,-8.40779e-45,1,-630.741,-82.1794)">
                    <g id="A-logo" transform="matrix(1.13715,-5.61664e-32,-5.66889e-32,1.13715,-15.5467,-62.6286)">
                        <path d="M334.686,132.135C332.555,132.1 330.577,132.161 329.17,132.182C328.107,132.214 327.254,132.571 326.609,133.256C322.937,139.354 316.352,148.275 310.73,155.897C305.109,163.518 298.649,172.03 291.352,181.432C278.034,198.467 268.24,212.904 260.777,221.246C221.726,216.376 211.367,216.51 188.48,216.48C183.959,216.474 179.846,216.943 176.137,217.455C172.556,217.83 169.25,218.463 166.217,219.354C151.576,223.524 142.045,233.325 136.404,249.063C134.673,253.372 133.444,257.381 132.768,261.393C131.621,270.386 130.245,279.705 135.678,286.443C141.36,292.828 146.837,293.8 155.207,293.412C172.079,292.632 192.208,284.672 217.318,266.08C226.291,259.288 234.47,252.587 241.852,245.977C249.362,239.229 256.387,232.362 262.561,225.389C271.531,227.244 279.047,228.654 287.074,230.139C295.102,231.624 302.727,232.989 309.949,234.232C309.463,240.101 309.095,245.5 308.846,250.43C308.73,255.356 308.734,259.88 308.859,264C309.195,275.032 310.494,282.71 312.754,287.031C312.903,287.559 313.443,287.808 314.373,287.779C316.766,287.707 318.117,286.769 318.322,284.768C318.318,284.635 318.059,284.342 317.652,284.088C317.246,283.834 316.772,283.582 316.232,283.332C311.927,281.434 312.375,274.177 312.262,270.881C312.124,266.362 312.365,261.166 312.984,255.293C313.604,249.42 314.53,242.673 315.762,235.053C321.912,236.063 329.34,237.355 332.945,237.777C336.679,238.063 339.019,238.101 341.664,237.059C345.425,235.533 346.23,234.604 346.105,231.676C345.311,227.644 341.677,224.583 335.848,221.281C333.477,220.112 333.843,222.948 335.299,223.881C339.802,227.602 342.997,229.103 343.094,232.293C343.158,234.42 339.513,234.984 335.26,235.113C331.006,235.243 322.908,233.838 316.068,232.051C321.968,200.032 328.933,184.642 346.744,138.631C348.849,133.194 341.078,132.238 334.686,132.135L334.686,132.135ZM338.926,137.029C338.926,137.029 338.926,137.029 338.926,137.029C340.872,137.029 342.473,138.63 342.473,140.576L342.473,140.577C342.473,142.522 340.872,144.123 338.926,144.123L338.925,144.123C336.98,144.123 335.379,142.522 335.379,140.577L335.379,140.576C335.379,138.63 336.98,137.029 338.925,137.029C338.925,137.029 338.926,137.029 338.926,137.029ZM326.146,144.451C327.343,144.415 327.972,145.459 328.037,147.586C328.049,147.985 327.944,148.854 327.719,150.191C316.748,187.51 311.756,214.886 310.65,231.018C303.163,229.782 295.602,228.351 287.969,226.721C280.469,225.086 269.753,223.098 265.525,222.113C275.565,211.031 284.134,197.815 293.871,185.545C303.609,173.275 313.325,160.275 323.018,146.543C323.662,145.858 324.18,145.376 324.57,145.098C324.957,144.687 325.482,144.471 326.146,144.451L326.146,144.451ZM335.418,147.793C335.418,147.793 335.418,147.793 335.418,147.793C337.108,147.793 338.498,149.183 338.498,150.873L338.498,150.873C338.498,152.563 337.108,153.953 335.418,153.953L335.418,153.953C333.728,153.953 332.338,152.563 332.338,150.873L332.338,150.873C332.338,149.183 333.728,147.793 335.418,147.793C335.418,147.793 335.418,147.793 335.418,147.793ZM195.973,220.244C212.815,220.154 233.409,221.663 257.969,224.73C244.184,239.518 230.078,252.521 215.652,263.736C192.37,281.208 172.376,289.325 155.242,290.246C151.392,290.496 148.05,290 145.219,288.756C134.659,284.17 134.737,277.325 134.889,271.594C135.534,263.848 136.898,257.031 139.221,250.309C141.793,243.046 145.21,237.287 149.471,233.033C153.86,228.642 160.557,223.883 169.662,222.143C177.113,220.928 185.868,220.298 195.973,220.244L195.973,220.244ZM335.027,228.398C333.974,228.398 333.106,229.265 333.105,230.318C333.105,230.319 333.105,230.319 333.105,230.319C333.105,231.373 333.973,232.24 335.026,232.24C335.027,232.24 335.027,232.24 335.027,232.24C336.081,232.24 336.948,231.372 336.947,230.318C336.947,229.265 336.08,228.399 335.027,228.398Z" style="fill:rgb(130,130,130);fill-rule:nonzero;"/>
                    </g>
                    <g transform="matrix(4.38108,-2.72177e-33,0,5.12811,594.614,242.214)">
                        <rect id="lejandro" x="-44.916" y="-26.813" width="1.769" height="26.813" style="fill:rgb(130,130,130);fill-rule:nonzero;"/>
                        <path d="M-24.259,-11.02C-24.259,-12.003 -24.397,-12.884 -24.673,-13.664C-24.95,-14.444 -25.34,-15.105 -25.843,-15.645C-26.347,-16.186 -26.946,-16.6 -27.64,-16.889C-28.334,-17.178 -29.099,-17.322 -29.934,-17.322C-30.88,-17.322 -31.728,-17.175 -32.477,-16.88C-33.227,-16.585 -33.875,-16.161 -34.421,-15.608C-34.968,-15.056 -35.407,-14.392 -35.739,-13.618C-36.071,-12.844 -36.292,-11.978 -36.402,-11.02L-24.259,-11.02ZM-36.495,-9.896L-36.495,-9.546C-36.495,-8.17 -36.335,-6.96 -36.015,-5.915C-35.696,-4.871 -35.241,-3.996 -34.652,-3.289C-34.062,-2.583 -33.35,-2.052 -32.514,-1.695C-31.679,-1.339 -30.745,-1.161 -29.713,-1.161C-28.792,-1.161 -27.993,-1.262 -27.318,-1.465C-26.642,-1.668 -26.074,-1.895 -25.613,-2.147C-25.152,-2.399 -24.787,-2.626 -24.516,-2.829C-24.246,-3.031 -24.05,-3.133 -23.927,-3.133C-23.767,-3.133 -23.644,-3.071 -23.558,-2.948L-23.079,-2.359C-23.374,-1.99 -23.764,-1.646 -24.249,-1.327C-24.735,-1.007 -25.275,-0.734 -25.871,-0.507C-26.467,-0.279 -27.106,-0.098 -27.787,0.037C-28.469,0.172 -29.154,0.24 -29.842,0.24C-31.095,0.24 -32.238,0.021 -33.27,-0.415C-34.302,-0.851 -35.186,-1.487 -35.923,-2.322C-36.66,-3.157 -37.229,-4.18 -37.628,-5.39C-38.027,-6.6 -38.227,-7.985 -38.227,-9.546C-38.227,-10.86 -38.039,-12.073 -37.665,-13.185C-37.29,-14.297 -36.75,-15.255 -36.043,-16.06C-35.337,-16.865 -34.471,-17.494 -33.445,-17.949C-32.419,-18.403 -31.255,-18.631 -29.953,-18.631C-28.921,-18.631 -27.962,-18.452 -27.078,-18.096C-26.193,-17.74 -25.426,-17.221 -24.774,-16.539C-24.123,-15.857 -23.61,-15.019 -23.236,-14.024C-22.861,-13.028 -22.674,-11.886 -22.674,-10.596C-22.674,-10.326 -22.711,-10.141 -22.784,-10.043C-22.858,-9.945 -22.981,-9.896 -23.153,-9.896L-36.495,-9.896Z" style="fill:rgb(130,130,130);fill-rule:nonzero;"/>
                        <path d="M-16.132,-18.336L-16.132,2.34C-16.132,2.979 -16.224,3.569 -16.408,4.109C-16.593,4.65 -16.866,5.12 -17.228,5.519C-17.591,5.918 -18.045,6.232 -18.592,6.459C-19.139,6.686 -19.781,6.8 -20.518,6.8C-20.874,6.8 -21.193,6.769 -21.476,6.708C-21.758,6.646 -22.035,6.548 -22.305,6.413L-22.213,5.528C-22.176,5.418 -22.127,5.353 -22.066,5.335C-22.004,5.316 -21.921,5.316 -21.817,5.335C-21.712,5.353 -21.58,5.378 -21.421,5.409C-21.261,5.439 -21.058,5.455 -20.812,5.455C-19.817,5.455 -19.08,5.184 -18.601,4.644C-18.122,4.103 -17.882,3.335 -17.882,2.34L-17.882,-18.336L-16.132,-18.336ZM-15.376,-24.656C-15.376,-24.435 -15.422,-24.23 -15.514,-24.039C-15.607,-23.849 -15.729,-23.68 -15.883,-23.532C-16.037,-23.385 -16.212,-23.268 -16.408,-23.182C-16.605,-23.096 -16.814,-23.053 -17.035,-23.053C-17.256,-23.053 -17.465,-23.096 -17.661,-23.182C-17.858,-23.268 -18.03,-23.385 -18.177,-23.532C-18.325,-23.68 -18.441,-23.849 -18.527,-24.039C-18.613,-24.23 -18.656,-24.435 -18.656,-24.656C-18.656,-24.878 -18.613,-25.09 -18.527,-25.292C-18.441,-25.495 -18.325,-25.67 -18.177,-25.817C-18.03,-25.965 -17.858,-26.082 -17.661,-26.168C-17.465,-26.254 -17.256,-26.297 -17.035,-26.297C-16.814,-26.297 -16.605,-26.254 -16.408,-26.168C-16.212,-26.082 -16.037,-25.965 -15.883,-25.817C-15.729,-25.67 -15.607,-25.495 -15.514,-25.292C-15.422,-25.09 -15.376,-24.878 -15.376,-24.656Z" style="fill:rgb(130,130,130);fill-rule:nonzero;"/>
                        <path d="M0.195,-8.864C-1.549,-8.802 -3.051,-8.664 -4.31,-8.449C-5.57,-8.234 -6.608,-7.942 -7.425,-7.574C-8.242,-7.205 -8.847,-6.766 -9.24,-6.256C-9.633,-5.746 -9.83,-5.166 -9.83,-4.515C-9.83,-3.901 -9.728,-3.369 -9.525,-2.921C-9.323,-2.472 -9.052,-2.104 -8.715,-1.815C-8.377,-1.526 -7.987,-1.315 -7.544,-1.179C-7.102,-1.044 -6.641,-0.977 -6.162,-0.977C-5.45,-0.977 -4.796,-1.053 -4.2,-1.207C-3.604,-1.361 -3.051,-1.576 -2.541,-1.852C-2.031,-2.128 -1.555,-2.457 -1.113,-2.838C-0.671,-3.219 -0.235,-3.63 0.195,-4.073L0.195,-8.864ZM-10.585,-15.737C-9.627,-16.696 -8.619,-17.42 -7.563,-17.912C-6.506,-18.403 -5.309,-18.649 -3.969,-18.649C-2.987,-18.649 -2.127,-18.492 -1.39,-18.179C-0.652,-17.866 -0.041,-17.417 0.444,-16.834C0.929,-16.25 1.295,-15.544 1.54,-14.715C1.786,-13.885 1.909,-12.961 1.909,-11.941L1.909,0L1.209,0C0.84,0 0.613,-0.172 0.527,-0.516L0.269,-2.875C-0.235,-2.383 -0.735,-1.941 -1.233,-1.548C-1.73,-1.155 -2.25,-0.823 -2.79,-0.553C-3.331,-0.283 -3.914,-0.074 -4.541,0.074C-5.167,0.221 -5.855,0.295 -6.605,0.295C-7.231,0.295 -7.839,0.203 -8.429,0.018C-9.019,-0.166 -9.544,-0.448 -10.005,-0.829C-10.465,-1.21 -10.834,-1.698 -11.11,-2.294C-11.387,-2.89 -11.525,-3.606 -11.525,-4.441C-11.525,-5.215 -11.304,-5.934 -10.861,-6.597C-10.419,-7.261 -9.725,-7.838 -8.779,-8.329C-7.833,-8.821 -6.62,-9.214 -5.14,-9.509C-3.659,-9.804 -1.881,-9.976 0.195,-10.025L0.195,-11.941C0.195,-13.637 -0.17,-14.942 -0.901,-15.857C-1.632,-16.772 -2.716,-17.23 -4.154,-17.23C-5.038,-17.23 -5.791,-17.107 -6.411,-16.861C-7.032,-16.616 -7.557,-16.345 -7.987,-16.051C-8.417,-15.756 -8.767,-15.486 -9.037,-15.24C-9.307,-14.994 -9.535,-14.871 -9.719,-14.871C-9.854,-14.871 -9.965,-14.902 -10.051,-14.963C-10.137,-15.025 -10.21,-15.105 -10.272,-15.203L-10.585,-15.737Z" style="fill:rgb(130,130,130);fill-rule:nonzero;"/>
                        <path d="M9.262,-15.129C10.109,-16.186 11.089,-17.033 12.201,-17.672C13.313,-18.311 14.551,-18.631 15.914,-18.631C16.922,-18.631 17.809,-18.471 18.577,-18.151C19.345,-17.832 19.981,-17.371 20.484,-16.769C20.988,-16.167 21.369,-15.443 21.627,-14.595C21.885,-13.747 22.014,-12.789 22.014,-11.72L22.014,0L20.245,0L20.245,-11.72C20.245,-13.44 19.852,-14.788 19.065,-15.765C18.279,-16.742 17.081,-17.23 15.472,-17.23C14.28,-17.23 13.165,-16.926 12.127,-16.318C11.089,-15.71 10.165,-14.865 9.354,-13.784L9.354,0L7.585,0L7.585,-18.336L8.561,-18.336C8.869,-18.336 9.047,-18.182 9.096,-17.875L9.262,-15.129Z" style="fill:rgb(130,130,130);fill-rule:nonzero;"/>
                        <path d="M40.184,-14.392C39.483,-15.449 38.706,-16.192 37.853,-16.622C36.999,-17.052 36.025,-17.267 34.932,-17.267C33.851,-17.267 32.905,-17.07 32.094,-16.677C31.283,-16.284 30.604,-15.728 30.058,-15.009C29.511,-14.291 29.099,-13.431 28.823,-12.43C28.546,-11.428 28.408,-10.326 28.408,-9.122C28.408,-6.394 28.909,-4.389 29.91,-3.105C30.911,-1.821 32.358,-1.179 34.25,-1.179C35.454,-1.179 36.553,-1.493 37.548,-2.119C38.544,-2.746 39.422,-3.624 40.184,-4.754L40.184,-14.392ZM41.934,-26.813L41.934,0L40.976,0C40.657,0 40.472,-0.16 40.423,-0.479L40.239,-3.372C39.428,-2.267 38.482,-1.388 37.401,-0.737C36.32,-0.086 35.104,0.24 33.752,0.24C31.492,0.24 29.735,-0.541 28.482,-2.101C27.229,-3.661 26.602,-6.001 26.602,-9.122C26.602,-10.461 26.777,-11.711 27.128,-12.872C27.478,-14.033 27.991,-15.04 28.666,-15.894C29.342,-16.748 30.174,-17.42 31.163,-17.912C32.152,-18.403 33.292,-18.649 34.582,-18.649C35.822,-18.649 36.897,-18.422 37.806,-17.967C38.716,-17.513 39.508,-16.837 40.184,-15.94L40.184,-26.813L41.934,-26.813Z" style="fill:rgb(130,130,130);fill-rule:nonzero;"/>
                        <path d="M49.471,-13.913C49.754,-14.662 50.076,-15.329 50.439,-15.912C50.801,-16.496 51.219,-16.99 51.692,-17.396C52.165,-17.801 52.693,-18.111 53.277,-18.326C53.86,-18.541 54.508,-18.649 55.221,-18.649C55.602,-18.649 55.976,-18.615 56.345,-18.548C56.713,-18.48 57.039,-18.36 57.322,-18.188L57.174,-16.972C57.113,-16.775 56.996,-16.677 56.824,-16.677C56.677,-16.677 56.452,-16.72 56.151,-16.806C55.85,-16.892 55.454,-16.935 54.963,-16.935C54.25,-16.935 53.621,-16.828 53.074,-16.613C52.527,-16.398 52.036,-16.075 51.6,-15.645C51.164,-15.215 50.783,-14.684 50.457,-14.051C50.132,-13.419 49.834,-12.691 49.563,-11.868L49.563,0L47.794,0L47.794,-18.336L48.734,-18.336C48.943,-18.336 49.09,-18.293 49.176,-18.207C49.262,-18.121 49.318,-17.973 49.342,-17.764L49.471,-13.913Z" style="fill:rgb(130,130,130);fill-rule:nonzero;"/>
                        <path d="M66.559,-18.631C67.873,-18.631 69.05,-18.406 70.088,-17.958C71.126,-17.51 72.001,-16.874 72.714,-16.051C73.426,-15.228 73.97,-14.236 74.345,-13.075C74.719,-11.914 74.907,-10.614 74.907,-9.177C74.907,-7.74 74.719,-6.444 74.345,-5.289C73.97,-4.134 73.426,-3.145 72.714,-2.322C72.001,-1.499 71.126,-0.866 70.088,-0.424C69.05,0.018 67.873,0.24 66.559,0.24C65.244,0.24 64.068,0.018 63.03,-0.424C61.992,-0.866 61.113,-1.499 60.395,-2.322C59.676,-3.145 59.129,-4.134 58.755,-5.289C58.38,-6.444 58.193,-7.74 58.193,-9.177C58.193,-10.614 58.38,-11.914 58.755,-13.075C59.129,-14.236 59.676,-15.228 60.395,-16.051C61.113,-16.874 61.992,-17.51 63.03,-17.958C64.068,-18.406 65.244,-18.631 66.559,-18.631ZM66.559,-1.143C67.652,-1.143 68.607,-1.33 69.424,-1.705C70.241,-2.079 70.923,-2.617 71.47,-3.317C72.017,-4.017 72.425,-4.862 72.695,-5.851C72.966,-6.84 73.101,-7.949 73.101,-9.177C73.101,-10.393 72.966,-11.499 72.695,-12.494C72.425,-13.489 72.017,-14.34 71.47,-15.046C70.923,-15.753 70.241,-16.296 69.424,-16.677C68.607,-17.058 67.652,-17.248 66.559,-17.248C65.466,-17.248 64.51,-17.058 63.693,-16.677C62.876,-16.296 62.195,-15.753 61.648,-15.046C61.101,-14.34 60.69,-13.489 60.413,-12.494C60.137,-11.499 59.999,-10.393 59.999,-9.177C59.999,-7.949 60.137,-6.84 60.413,-5.851C60.69,-4.862 61.101,-4.017 61.648,-3.317C62.195,-2.617 62.876,-2.079 63.693,-1.705C64.51,-1.33 65.466,-1.143 66.559,-1.143Z" style="fill:rgb(130,130,130);fill-rule:nonzero;"/>
                    </g>
                </g>
            </g>
        </g>
    </g>
</svg>
