<?xml version="1.0" standalone="no"?><!DOCTYPE svg PUBLIC "-//W3C//DTD SVG 1.1//EN" "http://www.w3.org/Graphics/SVG/1.1/DTD/svg11.dtd"><svg width="100%" height="100%" viewBox="0 0 1701 281" version="1.1" xmlns="http://www.w3.org/2000/svg" xmlns:xlink="http://www.w3.org/1999/xlink" xml:space="preserve" style="fill-rule:evenodd;clip-rule:evenodd;stroke-linejoin:round;stroke-miterlimit:1.41421;"><g><text id="orsino" x="1273.09px" y="221.418px" style="font-family:'Lato-Thin';font-size:185.276px;fill:#000;">o<tspan x="1359.9px 1412.78px 1478.63px 1511.71px 1597.34px " y="221.418px 221.418px 221.418px 221.418px 221.418px ">rsino</tspan></text><text id="lejandro" x="391.226px" y="221.418px" style="font-family:'Lato-Thin';font-size:185.276px;fill:#000;">l<tspan x="424.15px 505.351px 538.432px 613.223px 698.855px 784.567px 832.305px " y="221.418px 221.418px 221.418px 221.418px 221.418px 221.418px 221.418px ">ejandro</tspan></text><path id="C-logo" d="M1219.82,10.287c-6.013,0 -12.025,0.339 -18.039,1.023c-23.831,2.96 -53.455,14.235 -88.868,33.822c-37.418,20.726 -68.599,44.071 -93.545,70.036c-28.731,29.835 -43.096,57.166 -43.096,81.991c0,20.954 10.688,38.666 32.07,51.649c19.154,12.071 42.317,17.589 69.49,18.045c16.704,0.455 33.856,-1.253 51.451,-5.125c17.596,-4.099 36.573,-10.548 55.282,-18.519c23.403,-11.728 39.454,-19.508 68.81,-43.994c1.559,-1.594 2.339,-2.845 2.339,-3.756c0,-1.139 -0.445,-1.711 -1.336,-1.711c-1.113,0 -2.339,0.797 -3.675,2.392c-19.553,18.098 -42.453,29.152 -68.045,40.037c-18.041,7.288 -35.447,12.568 -53.042,16.668c-17.373,3.871 -34.521,6.037 -51.448,6.492c-29.4,0.684 -47.467,-0.696 -65.631,-16.922c-11.417,-10.199 -14.698,-23.509 -14.325,-44.462c0.101,-5.693 0.777,-11.272 2.336,-16.738c10.246,-34.391 28.73,-66.276 75.28,-102.261c44.1,-33.48 84.969,-53.864 122.61,-61.152c3.118,-0.455 6.014,-0.798 8.687,-1.026c2.896,-0.228 5.569,-0.342 8.019,-0.342c18.041,0 29.065,4.556 33.074,13.666c-9.577,10.477 -19.153,23.688 -28.73,39.631c-12.696,20.498 -19.398,36.413 -19.398,49.167c3.12,2.78 6.13,3.858 10.491,3.456c12.696,-7.288 24.497,-16.981 33.629,-28.369c8.018,-9.11 13.475,-17.536 16.37,-25.28c2.896,-7.971 4.344,-16.398 4.344,-25.28c0,-9.11 -1.561,-15.6 -4.679,-19.472c2.895,-3.644 4.048,-5.734 4.204,-6.4c0.233,-0.994 0.075,-2.085 -1.02,-2.391c-1.36,-0.379 -2.037,0.104 -2.849,0.933l-4.343,4.441c-7.35,-6.833 -19.49,-10.249 -36.417,-10.249l0,0ZM1250.22,35.567c2.227,3.872 3.343,8.996 3.343,15.373c0,3.645 -0.445,7.175 -1.336,10.591c-0.668,3.417 -1.671,6.947 -3.008,10.592c-7.572,17.992 -19.712,32.569 -36.416,43.729c-1.114,0.683 -2.117,0.683 -3.008,0c-0.668,-0.456 -0.891,-1.481 -0.668,-3.076c2.896,-11.843 8.243,-25.394 16.038,-40.653c4.009,-7.972 8.128,-14.919 12.36,-20.84c4.232,-5.922 8.463,-11.161 12.695,-15.716l0,0ZM1228.51,83.54c-1.769,-0.002 -3.204,1.432 -3.204,3.201c0,1.769 1.435,3.202 3.204,3.201c1.768,0 3.201,-1.433 3.201,-3.201c0,-1.768 -1.433,-3.201 -3.201,-3.201ZM988.77,180.702c3.401,-0.001 6.158,2.756 6.157,6.157c-0.001,3.399 -2.758,6.154 -6.157,6.154c-3.398,-0.002 -6.153,-2.756 -6.154,-6.154c0,-3.4 2.755,-6.156 6.154,-6.157ZM987.518,197.201c3.263,0 5.909,2.646 5.909,5.909c0,3.263 -2.646,5.909 -5.909,5.909c-3.262,-0.002 -5.906,-2.647 -5.905,-5.909c-0.001,-3.262 2.643,-5.907 5.905,-5.909Z" style="fill:#000;fill-rule:nonzero;"/><path id="A-logo" d="M368.876,4.58c-3.606,-0.058 -6.953,0.044 -9.335,0.08c-1.8,0.054 -3.243,0.659 -4.334,1.818c-6.215,10.321 -17.36,25.42 -26.875,38.319c-9.514,12.899 -20.448,27.305 -32.798,43.218c-22.54,28.832 -39.117,53.266 -51.747,67.386c-66.094,-8.243 -83.627,-8.016 -122.362,-8.066c-7.652,-0.01 -14.613,0.783 -20.892,1.649c-6.06,0.635 -11.656,1.706 -16.789,3.213c-24.779,7.059 -40.911,23.647 -50.458,50.283c-2.93,7.294 -5.01,14.078 -6.155,20.868c-1.941,15.222 -4.269,30.994 4.926,42.399c9.617,10.806 18.887,12.451 33.053,11.794c28.556,-1.319 62.623,-14.793 105.123,-46.259c15.187,-11.496 29.028,-22.837 41.522,-34.025c12.712,-11.42 24.601,-23.043 35.05,-34.845c15.182,3.14 27.903,5.526 41.489,8.039c13.587,2.514 26.493,4.824 38.716,6.929c-0.823,9.932 -1.446,19.07 -1.868,27.414c-0.196,8.337 -0.189,15.994 0.024,22.967c0.568,18.672 2.766,31.667 6.591,38.981c0.252,0.893 1.166,1.314 2.74,1.266c4.05,-0.124 6.337,-1.71 6.684,-5.098c-0.006,-0.225 -0.445,-0.721 -1.133,-1.15c-0.689,-0.429 -1.49,-0.857 -2.404,-1.279c-7.286,-3.212 -6.529,-15.496 -6.72,-21.074c-0.233,-7.648 0.175,-16.443 1.223,-26.382c1.049,-9.94 2.617,-21.359 4.701,-34.257c10.41,1.71 22.982,3.897 29.083,4.612c6.319,0.483 10.279,0.548 14.756,-1.217c6.366,-2.582 7.728,-4.154 7.517,-9.11c-1.344,-6.824 -7.495,-12.004 -17.361,-17.593c-4.012,-1.979 -3.393,2.822 -0.929,4.4c7.622,6.298 13.029,8.838 13.193,14.237c0.11,3.6 -6.06,4.555 -13.259,4.774c-7.199,0.219 -20.906,-2.158 -32.481,-5.184c9.985,-54.191 21.773,-80.239 51.918,-158.112c3.562,-9.202 -9.59,-10.82 -20.409,-10.995l0,0ZM376.053,12.864c0,0 0,0 0.001,0c3.292,0 6.002,2.71 6.002,6.002l0,0.002c0,3.293 -2.71,6.002 -6.002,6.002l-0.002,0c-3.293,0 -6.002,-2.709 -6.002,-6.002l0,-0.002c0,-3.292 2.709,-6.002 6.002,-6.002c0,0 0,0 0.001,0ZM354.424,25.426c2.025,-0.062 3.09,1.706 3.2,5.305c0.02,0.675 -0.158,2.147 -0.539,4.41c-18.568,63.162 -27.017,109.495 -28.888,136.798c-12.673,-2.091 -25.47,-4.514 -38.389,-7.273c-12.693,-2.766 -30.83,-6.132 -37.985,-7.798c16.992,-18.756 31.494,-41.125 47.975,-61.891c16.481,-20.767 32.925,-42.77 49.33,-66.011c1.091,-1.159 1.967,-1.976 2.628,-2.446c0.655,-0.696 1.543,-1.06 2.668,-1.094l0,0ZM370.116,31.082c0,0 0,0 0,0c2.86,0 5.213,2.353 5.213,5.212l0,0.001c0,2.859 -2.353,5.213 -5.213,5.213l0,0c-2.86,0 -5.213,-2.354 -5.213,-5.213l0,-0.001c0,-2.859 2.353,-5.212 5.213,-5.212c0,0 0,0 0,0ZM134.105,153.705c28.505,-0.153 63.361,2.401 104.928,7.593c-23.331,25.028 -47.204,47.035 -71.62,66.017c-39.405,29.571 -73.244,43.309 -102.244,44.868c-6.517,0.423 -12.172,-0.417 -16.964,-2.523c-17.873,-7.762 -17.741,-19.346 -17.484,-29.046c1.092,-13.11 3.4,-24.647 7.332,-36.025c4.354,-12.292 10.137,-22.039 17.348,-29.239c7.43,-7.431 18.763,-15.486 34.174,-18.432c12.611,-2.055 27.428,-3.122 44.53,-3.213l0,0ZM369.455,167.506c-1.784,-0.001 -3.252,1.466 -3.253,3.249c0,0.001 0,0.001 0,0.002c0,1.783 1.468,3.251 3.251,3.251c0.001,0 0.001,0 0.002,0c1.783,-0.001 3.25,-1.469 3.249,-3.253c-0.001,-1.782 -1.467,-3.248 -3.249,-3.249Z" style="fill:#000;fill-rule:nonzero;"/></g></svg>