<?xml version="1.0" standalone="no"?><!DOCTYPE svg PUBLIC "-//W3C//DTD SVG 1.1//EN" "http://www.w3.org/Graphics/SVG/1.1/DTD/svg11.dtd"><svg width="100%" height="100%" viewBox="0 0 101 101" version="1.1" xmlns="http://www.w3.org/2000/svg" xmlns:xlink="http://www.w3.org/1999/xlink" xml:space="preserve" style="fill-rule:evenodd;clip-rule:evenodd;stroke-linejoin:round;stroke-miterlimit:1.41421;"><g><path id="C-logo" d="M85.527,42.592c-1.313,0 -2.625,0.07 -3.938,0.209c-5.202,0.606 -11.669,2.914 -19.399,6.922c-8.169,4.242 -14.975,9.02 -20.421,14.333c-6.272,6.107 -9.408,11.7 -9.408,16.781c0,4.288 2.334,7.913 7.001,10.57c4.181,2.47 9.238,3.599 15.17,3.693c3.646,0.093 7.39,-0.257 11.231,-1.049c3.841,-0.839 7.984,-2.159 12.068,-3.79c5.109,-2.4 8.613,-3.993 15.021,-9.004c0.34,-0.326 0.511,-0.582 0.511,-0.769c0,-0.233 -0.098,-0.35 -0.292,-0.35c-0.243,0 -0.511,0.164 -0.802,0.49c-4.269,3.704 -9.268,5.966 -14.854,8.194c-3.939,1.491 -7.738,2.572 -11.579,3.411c-3.793,0.792 -7.536,1.235 -11.231,1.329c-6.418,0.139 -10.362,-0.143 -14.327,-3.464c-2.492,-2.087 -3.209,-4.811 -3.127,-9.099c0.022,-1.165 0.169,-2.307 0.51,-3.426c2.236,-7.038 6.271,-13.563 16.433,-20.928c9.627,-6.852 18.549,-11.023 26.765,-12.515c0.681,-0.093 1.313,-0.163 1.897,-0.21c0.632,-0.046 1.215,-0.07 1.75,-0.07c3.939,0 6.345,0.933 7.22,2.797c-2.091,2.144 -4.181,4.848 -6.272,8.111c-2.771,4.195 -4.234,7.452 -4.234,10.062c0.681,0.569 1.338,0.79 2.29,0.707c2.772,-1.491 5.348,-3.475 7.341,-5.806c1.751,-1.864 2.942,-3.589 3.574,-5.173c0.632,-1.632 0.948,-3.356 0.948,-5.174c0,-1.865 -0.341,-3.193 -1.021,-3.985c0.632,-0.746 0.883,-1.174 0.917,-1.31c0.051,-0.203 0.017,-0.427 -0.222,-0.489c-0.297,-0.078 -0.445,0.021 -0.622,0.191l-0.948,0.909c-1.605,-1.399 -4.255,-2.098 -7.95,-2.098l0,0ZM92.164,47.766c0.486,0.792 0.729,1.841 0.729,3.146c0,0.746 -0.097,1.468 -0.291,2.168c-0.146,0.699 -0.365,1.421 -0.657,2.167c-1.653,3.682 -4.303,6.666 -7.949,8.95c-0.244,0.139 -0.462,0.139 -0.657,0c-0.146,-0.094 -0.194,-0.304 -0.146,-0.63c0.632,-2.424 1.8,-5.197 3.501,-8.32c0.875,-1.631 1.775,-3.053 2.698,-4.265c0.924,-1.212 1.848,-2.284 2.772,-3.216l0,0ZM87.426,57.584c-0.387,-0.001 -0.7,0.293 -0.7,0.655c0,0.362 0.313,0.655 0.7,0.655c0.385,0 0.698,-0.293 0.698,-0.655c0,-0.362 -0.313,-0.655 -0.698,-0.655ZM35.09,77.468c0.743,0 1.345,0.564 1.344,1.26c0,0.696 -0.602,1.26 -1.344,1.26c-0.741,0 -1.343,-0.564 -1.343,-1.26c0,-0.695 0.601,-1.259 1.343,-1.26ZM34.817,80.845c0.712,0 1.29,0.542 1.29,1.209c0,0.668 -0.578,1.21 -1.29,1.21c-0.712,-0.001 -1.289,-0.542 -1.289,-1.21c0,-0.667 0.577,-1.209 1.289,-1.209Z" style="fill:#000;fill-rule:nonzero;"/><path id="A-logo" d="M76.338,5.118c-0.745,-0.011 -1.437,0.008 -1.929,0.015c-0.372,0.011 -0.67,0.128 -0.895,0.352c-1.284,1.999 -3.586,4.924 -5.552,7.422c-1.966,2.498 -4.224,5.288 -6.776,8.37c-4.656,5.584 -8.08,10.316 -10.69,13.051c-13.653,-1.597 -17.275,-1.553 -25.277,-1.562c-1.581,-0.002 -3.019,0.151 -4.316,0.319c-1.252,0.123 -2.408,0.33 -3.469,0.622c-5.119,1.368 -8.451,4.58 -10.423,9.739c-0.606,1.412 -1.035,2.726 -1.272,4.041c-0.401,2.948 -0.882,6.003 1.018,8.212c1.987,2.093 3.902,2.411 6.828,2.284c5.899,-0.255 12.937,-2.865 21.716,-8.959c3.138,-2.226 5.997,-4.423 8.578,-6.59c2.626,-2.212 5.082,-4.463 7.241,-6.748c3.136,0.608 5.764,1.07 8.571,1.557c2.807,0.486 5.473,0.934 7.998,1.342c-0.17,1.923 -0.299,3.693 -0.386,5.309c-0.041,1.615 -0.039,3.097 0.005,4.448c0.117,3.616 0.571,6.133 1.362,7.55c0.052,0.172 0.24,0.254 0.566,0.245c0.836,-0.024 1.309,-0.331 1.38,-0.987c-0.001,-0.044 -0.092,-0.14 -0.234,-0.223c-0.142,-0.083 -0.308,-0.166 -0.496,-0.248c-1.505,-0.622 -1.349,-3.001 -1.389,-4.081c-0.048,-1.482 0.036,-3.185 0.253,-5.11c0.217,-1.925 0.541,-4.137 0.971,-6.635c2.151,0.332 4.748,0.755 6.008,0.894c1.306,0.093 2.124,0.106 3.049,-0.236c1.315,-0.5 1.596,-0.805 1.553,-1.765c-0.278,-1.321 -1.549,-2.324 -3.587,-3.407c-0.829,-0.383 -0.701,0.547 -0.192,0.852c1.575,1.22 2.692,1.712 2.726,2.758c0.022,0.697 -1.252,0.882 -2.74,0.924c-1.487,0.043 -4.318,-0.418 -6.71,-1.004c2.063,-10.495 4.498,-15.54 10.726,-30.622c0.736,-1.782 -1.981,-2.095 -4.216,-2.129l0,0ZM77.82,6.722c0,0 0,0 0,0c0.681,0 1.24,0.525 1.24,1.163l0,0c0,0.638 -0.559,1.162 -1.24,1.162l0,0c-0.68,0 -1.24,-0.524 -1.24,-1.162l0,0c0,-0.638 0.56,-1.163 1.24,-1.163c0,0 0,0 0,0ZM73.352,9.155c0.418,-0.012 0.638,0.33 0.661,1.028c0.004,0.13 -0.032,0.415 -0.111,0.854c-3.836,12.232 -5.581,21.206 -5.968,26.494c-2.618,-0.405 -5.262,-0.874 -7.93,-1.409c-2.623,-0.535 -6.369,-1.187 -7.847,-1.51c3.51,-3.633 6.506,-7.965 9.91,-11.987c3.405,-4.022 6.802,-8.283 10.191,-12.784c0.225,-0.225 0.406,-0.383 0.543,-0.474c0.135,-0.135 0.319,-0.205 0.551,-0.212l0,0ZM76.594,10.25c0,0 0,0 0,0c0.591,0 1.077,0.456 1.077,1.01l0,0c0,0.554 -0.486,1.01 -1.077,1.01l0,0c-0.591,0 -1.077,-0.456 -1.077,-1.01l0,0c0,-0.554 0.486,-1.01 1.077,-1.01c0,0 0,0 0,0ZM27.838,33.999c5.889,-0.029 13.089,0.465 21.676,1.471c-4.819,4.847 -9.751,9.109 -14.795,12.786c-8.14,5.727 -15.131,8.388 -21.122,8.689c-1.346,0.082 -2.514,-0.08 -3.504,-0.488c-3.692,-1.504 -3.665,-3.747 -3.612,-5.626c0.225,-2.539 0.702,-4.773 1.514,-6.977c0.9,-2.38 2.095,-4.268 3.584,-5.663c1.535,-1.439 3.876,-2.999 7.06,-3.569c2.605,-0.398 5.666,-0.605 9.199,-0.623l0,0ZM76.457,36.672c-0.368,0 -0.672,0.284 -0.672,0.63c0,0 0,0 0,0c0,0.345 0.303,0.63 0.672,0.63c0,0 0,0 0,0c0.369,-0.001 0.672,-0.285 0.671,-0.63c0,-0.346 -0.303,-0.63 -0.671,-0.63Z" style="fill:#000;fill-rule:nonzero;"/></g></svg>